<?xml version="1.0" standalone="no"?>
<!DOCTYPE svg PUBLIC "-//W3C//DTD SVG 20010904//EN"
 "http://www.w3.org/TR/2001/REC-SVG-20010904/DTD/svg10.dtd">
<svg version="1.0" xmlns="http://www.w3.org/2000/svg"
 width="534.000000pt" height="534.000000pt" viewBox="0 0 534.000000 534.000000"
 preserveAspectRatio="xMidYMid meet">
<metadata>
Created by potrace 1.11, written by Peter Selinger 2001-2013
</metadata>
<g transform="translate(0.000000,534.000000) scale(0.100000,-0.100000)"
fill="#000000" stroke="none">
<path d="M2488 5336 c-1 -2 -32 -6 -68 -10 -36 -3 -92 -11 -125 -16 -33 -6
-75 -13 -94 -16 -219 -37 -528 -151 -743 -275 -118 -68 -290 -185 -344 -234
-6 -5 -34 -29 -62 -53 -96 -81 -228 -220 -335 -351 -141 -174 -302 -469 -385
-706 -54 -154 -103 -356 -117 -485 -4 -30 -9 -66 -12 -80 -3 -14 -7 -194 -9
-400 -3 -428 5 -533 62 -784 41 -178 130 -424 200 -554 15 -26 42 -76 62 -112
52 -96 140 -224 230 -336 377 -470 924 -790 1515 -889 152 -25 159 -26 377
-29 245 -4 396 12 619 64 94 22 275 81 361 116 99 41 314 156 409 218 465 307
815 757 992 1274 53 156 92 310 105 417 2 22 6 45 9 52 19 56 29 790 13 948
-10 90 -36 249 -49 300 -6 22 -12 47 -14 55 -5 27 -25 98 -44 157 -202 626
-643 1149 -1225 1454 -227 118 -501 209 -736 245 -19 3 -64 10 -100 16 -58 9
-483 21 -492 14z"/>
</g>
</svg>
